<svg xmlns="http://www.w3.org/2000/svg" viewBox="0 0 864 323.112">
  <g id="full-rgb">
    <g id="logoMark">
      <path id="logoMark_PathItem_" data-name="logoMark &lt;PathItem&gt;" d="M122.0609,152.4122H84.6389a67.7737,67.7737,0,1,1,0-135.5473h37.422a8.4325,8.4325,0,1,0,0-16.8649H84.6389a84.6386,84.6386,0,1,0,0,169.2771h37.422a67.7737,67.7737,0,1,1,0,135.5473H84.6389a8.4325,8.4325,0,1,0,0,16.8649h37.422a84.6386,84.6386,0,1,0,0-169.2771Z" style="fill: #f26728"/>
      <path id="logoMark_CompoundPathItem_" data-name="logoMark &lt;CompoundPathItem&gt;" d="M8.4325,275.8251H122.0609a38.7744,38.7744,0,1,0,0-77.5487H8.4325A8.4326,8.4326,0,0,0,0,206.7089v60.6837A8.4326,8.4326,0,0,0,8.4325,275.8251Zm8.4324-60.6838h105.196a21.9094,21.9094,0,1,1,0,43.8188H16.8649Z" style="fill: #f26728"/>
      <path id="logoMark_PathItem_2" data-name="logoMark &lt;PathItem&gt;" d="M198.2674,76.2064H64.4215A21.94,21.94,0,0,1,84.6389,62.7292H198.2674a8.4325,8.4325,0,0,0,0-16.865H84.6389A38.8189,38.8189,0,0,0,45.8642,84.6389a39.3617,39.3617,0,0,0,11.8487,27.8983A74.1561,74.1561,0,0,0,74.89,125.2379,8.4326,8.4326,0,0,0,82.49,110.1827a57.7765,57.7765,0,0,1-12.8514-9.57,24.1234,24.1234,0,0,1-5.1539-7.5413H198.2674a8.4325,8.4325,0,0,0,0-16.8649Z" style="fill: #f26728"/>
      <circle id="logoMark_PathItem_3" data-name="logoMark &lt;PathItem&gt;" cx="198.2673" cy="8.4326" r="8.4325" style="fill: #f26728"/>
      <path id="logoMark_PathItem_4" data-name="logoMark &lt;PathItem&gt;" d="M159.5237,16.8651h0a8.4325,8.4325,0,0,0,0-16.8649h0a8.4325,8.4325,0,1,0,0,16.8649Z" style="fill: #f26728"/>
      <path id="logoMark_PathItem_5" data-name="logoMark &lt;PathItem&gt;" d="M8.4327,304.8245A8.4326,8.4326,0,0,0,0,313.257H0a8.4325,8.4325,0,0,0,16.865,0h0A8.4326,8.4326,0,0,0,8.4327,304.8245Z" style="fill: #f26728"/>
      <path id="logoMark_PathItem_6" data-name="logoMark &lt;PathItem&gt;" d="M45.9414,304.8245a8.4325,8.4325,0,0,0-8.4324,8.4325h0a8.4325,8.4325,0,0,0,16.8649,0h0A8.4326,8.4326,0,0,0,45.9414,304.8245Z" style="fill: #f26728"/>
    </g>
    <g id="type">
      <path id="type_CompoundPathItem_" data-name="type &lt;CompoundPathItem&gt;" d="M360.253,38.675c0,.6074.0176,1.27.0566,1.99a5.7914,5.7914,0,0,1-.1706,1.877V43.68a1.7838,1.7838,0,0,0-.0566.7962,1.25,1.25,0,0,1-.0573.6824,6.0821,6.0821,0,0,0-.1133,1.1946,6.14,6.14,0,0,1-.1139,1.1941,23.06,23.06,0,0,0-.4551,3.3555,12.31,12.31,0,0,1-.6823,3.3561q-.3419,1.3642-.74,2.7865a24.3485,24.3485,0,0,1-.9668,2.7872,38.6828,38.6828,0,0,1-4.8341,8.8152,26.4322,26.4322,0,0,1-7.2233,6.6544,27.5415,27.5415,0,0,1-4.6069,2.3314q-2.4473.9678-5.2891,1.877a11.9645,11.9645,0,0,1-2.6732.6256,22.5793,22.5793,0,0,0-2.7865.5118,13.56,13.56,0,0,1-2.446.2278,11.8994,11.8994,0,0,0-2.3314.2272h-1.5925a1.7741,1.7741,0,0,1-.7962.0573,7.4,7.4,0,0,0-.91-.0573h-22.75a23.525,23.525,0,0,1-3.0143-.17,2.0325,2.0325,0,0,1-1.7631-1.4219,5.5508,5.5508,0,0,1-.3984-2.616q.0567-1.7059.0573-3.071V6.5977q0-1.3651-.0573-2.9a4.2513,4.2513,0,0,1,.5124-2.446A2.3014,2.3014,0,0,1,295.7573.2279a.6464.6464,0,0,1,.4551-.0567.6328.6328,0,0,0,.4551-.0573h24.6833a9.5409,9.5409,0,0,0,1.0807-.0566,2.7771,2.7771,0,0,1,.9668.0566,2.1146,2.1146,0,0,0,1.1947.114,3.1989,3.1989,0,0,1,1.194,0,6.3692,6.3692,0,0,0,1.2513.1139A6.5218,6.5218,0,0,1,328.29.4551,5.4379,5.4379,0,0,0,329.37.569a5.5937,5.5937,0,0,1,1.08.1139q1.251.23,2.3887.3978a16.4843,16.4843,0,0,1,2.2754.5118q2.5.7977,4.7774,1.5358A17.9731,17.9731,0,0,1,344.1,5.1192a31.4331,31.4331,0,0,1,2.8438,1.82,8.4622,8.4622,0,0,1,.6823.5117,7.914,7.914,0,0,0,.683.5124c.455.38.87.7584,1.2513,1.1374q.5675.57,1.1374,1.1374a6.5207,6.5207,0,0,0,.91.7962,10.7,10.7,0,0,0,.9674,1.2513,11.09,11.09,0,0,1,.9668,1.2513,8.7124,8.7124,0,0,1,.9669,1.4213,13.7544,13.7544,0,0,0,.9668,1.5358,6.5462,6.5462,0,0,1,.3411.7962,5.8478,5.8478,0,0,0,.3412.7963c.3021.608.569,1.1946.7962,1.763s.4922,1.1569.7962,1.7631a20.1551,20.1551,0,0,1,.74,2.5592q.2823,1.31.6257,2.5593a4.16,4.16,0,0,1,.2272,1.3086,4.0956,4.0956,0,0,0,.2279,1.308,18.46,18.46,0,0,1,.625,4.4929Q360.2524,36.2876,360.253,38.675ZM349.4468,44.59a12.4994,12.4994,0,0,0,.2273-2.446V39.5845q0-.9091.0572-1.763a4.8325,4.8325,0,0,0-.1705-1.6492,4.1512,4.1512,0,0,0-.0573-.6823,4.7833,4.7833,0,0,1-.0567-.7962,18.3944,18.3944,0,0,1-.2845-2.5026,11.563,11.563,0,0,0-.3978-2.5027q-.2293-.9092-.3984-1.763c-.1139-.569-.2467-1.155-.3978-1.7631a29.7616,29.7616,0,0,0-3.1849-7.1661,19.6673,19.6673,0,0,0-9.4416-7.7351,8.9186,8.9186,0,0,0-2.1608-.8529q-1.1386-.2823-2.3887-.6256a11.763,11.763,0,0,0-2.5593-.3985,18.6347,18.6347,0,0,1-2.56-.2838h-2.3887a2.5512,2.5512,0,0,0-.7962-.114H307.7009a.9082.9082,0,0,1-.5684.0567.93.93,0,0,0-.569.0573c-.38.1523-.739.304-1.0808.455a1.4545,1.4545,0,0,0-.7389.6824,6.98,6.98,0,0,0-.4551,1.5924v.91a4.2134,4.2134,0,0,0-.1139,1.0234V67.51a3.9492,3.9492,0,0,0,.1139.9668v.91a6.93,6.93,0,0,0,.4551,1.5924q.9091,1.3644,3.4121,1.308,2.5011-.0557,4.7774-.0566h6.5978q.794,0,1.7064.0566a4.1554,4.1554,0,0,0,1.5924-.1706h1.2507a4.5434,4.5434,0,0,1,1.2513-.0572,5.4012,5.4012,0,0,0,1.3653-.0567,5.9282,5.9282,0,0,1,1.3646-.2845,7.6655,7.6655,0,0,0,1.4792-.2839q1.25-.3417,2.4453-.6829a17.4238,17.4238,0,0,0,2.4454-.91,22.0418,22.0418,0,0,0,7.2234-4.948,25.8231,25.8231,0,0,0,4.948-7.45A18.6743,18.6743,0,0,0,347.57,54.77q.3975-1.421.8528-2.9a18.491,18.491,0,0,0,.5124-2.6732q.17-1.4209.3978-2.7871a5.1179,5.1179,0,0,0,.1139-.9668Z"/>
      <path id="type_CompoundPathItem_2" data-name="type &lt;CompoundPathItem&gt;" d="M442.72,75.1878q.2266.57.569,1.3653a8.3447,8.3447,0,0,1,.5117,1.6491,3.7457,3.7457,0,0,1,0,1.5925,1.5278,1.5278,0,0,1-.9668,1.0807,3.6548,3.6548,0,0,1-1.3652.2272H436.52a5.7457,5.7457,0,0,1-2.7865-.5683,3.9523,3.9523,0,0,1-1.65-2.3887,31.7762,31.7762,0,0,0-1.0807-3.0717q-1.2529-2.956-2.2748-6.142-1.0234-3.1838-2.2748-6.2566-.3417-1.0234-.6256-1.9336a11.6485,11.6485,0,0,0-.6823-1.7058,4.2466,4.2466,0,0,0-1.0808-1.3652,5.1422,5.1422,0,0,0-1.82-.91,2.9158,2.9158,0,0,0-1.3079-.1706c-.4942.0391-1.0059.0573-1.5359.0573H397.9026q-1.0235,0-2.2748-.0573a16.7292,16.7292,0,0,0-2.3887.0573,16.3766,16.3766,0,0,0-2.1042.3412,2.24,2.24,0,0,0-1.4219.91,7.101,7.101,0,0,0-1.3079,2.56q-.4,1.4229-.9669,2.9-1.1386,2.6183-2.1048,5.46-.9678,2.8448-2.1042,5.46-.2293.6827-.5117,1.5358-.2851.8535-.6257,1.763a13.2969,13.2969,0,0,1-.74,1.6492,3.2675,3.2675,0,0,1-.8528,1.0807,4.2524,4.2524,0,0,1-2.4454.74q-1.5361.0585-3.2422.0566c-.608,0-1.194-.0176-1.7631-.0566a2.4689,2.4689,0,0,1-1.4218-.5117,1.2462,1.2462,0,0,1-.6257-1.0241,4.5677,4.5677,0,0,1,.1139-1.4219A11.0512,11.0512,0,0,1,371.57,76.61a5.7363,5.7363,0,0,1,.5117-1.0807q1.5919-3.6387,2.8438-7.2228,1.25-3.583,2.73-7.2234,1.0234-2.5,1.9336-4.9479.9091-2.4444,1.9336-4.948,3.4131-8.19,6.4838-16.55T394.49,17.9722q1.25-2.9561,2.3321-6.0281,1.0791-3.0713,2.3314-6.0287a28.6453,28.6453,0,0,0,1.0808-2.7871A4.1037,4.1037,0,0,1,401.7705.91,3.0037,3.0037,0,0,1,403.249.2279a.78.78,0,0,1,.5117-.0567.764.764,0,0,0,.5118-.0573q2.0478,0,4.7774-.0566A6.624,6.624,0,0,1,413.0311.91a4.4279,4.4279,0,0,1,1.4218,2.2181,28.4668,28.4668,0,0,0,1.0808,2.7871q1.1358,2.6172,2.0475,5.2325.9093,2.6172,2.0476,5.2319.9091,2.2773,1.763,4.6641.8535,2.3887,1.877,4.6635,3.4122,8.3047,6.5405,16.7782t6.6543,16.7775a18.4135,18.4135,0,0,1,.739,1.9337q.2832.912.6257,1.9336,1.251,2.96,2.4459,6.0287Q441.4687,72.2305,442.72,75.1878ZM418.3775,47.5469a1.9078,1.9078,0,0,0,1.3079-1.1374,3.413,3.413,0,0,0,.114-1.7631,9.4139,9.4139,0,0,0-.569-1.9336c-.2663-.6433-.5118-1.1947-.739-1.6491a1.8125,1.8125,0,0,1-.2279-.7963,1.8389,1.8389,0,0,0-.2272-.7962q-.3417-.9092-.6256-1.877a16.5043,16.5043,0,0,0-.74-1.9909q-1.7061-4.0947-3.0144-8.36t-3.0143-8.3608a22.16,22.16,0,0,1-.9669-2.5026,16.75,16.75,0,0,0-.9668-2.3887,9.9632,9.9632,0,0,0-.5117-1.08,1.2466,1.2466,0,0,0-1.194-.5124,1.7674,1.7674,0,0,1-.4551.3418,1.7712,1.7712,0,0,0-.4551.3411,4.2131,4.2131,0,0,0-.6823,1.1941q-.23.6268-.4551,1.3079a16.5081,16.5081,0,0,0-.91,2.5027,16.5325,16.5325,0,0,1-.91,2.5026,88.2858,88.2858,0,0,0-3.3555,8.9858q-1.4238,4.5509-3.2416,8.8725c-.153.38-.2845.7591-.3984,1.1374-.1133.3808-.2468.7591-.3979,1.1374q-.3417.912-.6829,1.82a16.8279,16.8279,0,0,0-.5684,1.82,2.69,2.69,0,0,0-.1705,1.2513,3.0739,3.0739,0,0,0,.2845,1.1374,2.7222,2.7222,0,0,0,2.3887.9668q1.8174.06,3.4121.0573h12.1714q1.25,0,3.071.0567A7.5327,7.5327,0,0,0,418.3775,47.5469Z"/>
      <path id="type_CompoundPathItem_3" data-name="type &lt;CompoundPathItem&gt;" d="M453.4112,0h58.4663a3.8548,3.8548,0,0,1,1.9336.4551,2.2264,2.2264,0,0,1,1.0813,1.5358,14.5435,14.5435,0,0,1,.17,2.4454V5.8015q-.2284.912-.3978,1.4785a2.0869,2.0869,0,0,1-.739,1.0241,4.6991,4.6991,0,0,1-2.5026.5684H495.3838q-1.252,0-2.4448-.0566a9.8289,9.8289,0,0,0-2.1615.1139,3.79,3.79,0,0,0-1.6491.6823,3.0558,3.0558,0,0,0-1.0247,1.5358,6.8556,6.8556,0,0,0-.2266,2.6159q.1114,1.5948.1133,2.8438V75.6429a24.7611,24.7611,0,0,1-.1712,3.071,2.3384,2.3384,0,0,1-1.308,1.9337,4.51,4.51,0,0,1-1.3646.2845q-.7968.0585-1.7057.0572h-3.1283a2.573,2.573,0,0,1-2.2182-.7962,3.78,3.78,0,0,1-.7389-2.1615q-.0585-1.25-.0579-2.73V16.4937q0-1.25.0579-2.9a7.8486,7.8486,0,0,0-.2845-2.6732,2.5994,2.5994,0,0,0-2.5593-1.9337q-1.9922-.1123-4.2657-.1139H457.7335q-1.3642,0-3.1277.0573a7.3056,7.3056,0,0,1-2.6732-.2845c-.2278-.1511-.4551-.3021-.6823-.4551a2.01,2.01,0,0,1-.569-.569,3.0756,3.0756,0,0,1-.4551-1.4785,12.1779,12.1779,0,0,1-.0566-2.0476,10.1657,10.1657,0,0,1,.2845-1.9336A2.75,2.75,0,0,1,451.0225.91a1.3855,1.3855,0,0,1,.6256-.5118,5.6979,5.6979,0,0,1,.8529-.2845.6534.6534,0,0,1,.4551-.0566A.6328.6328,0,0,0,453.4112,0Z"/>
      <path id="type_CompoundPathItem_4" data-name="type &lt;CompoundPathItem&gt;" d="M593.0934,75.1878q.2267.57.569,1.3653a8.343,8.343,0,0,1,.5111,1.6491,3.7265,3.7265,0,0,1,0,1.5925,1.5253,1.5253,0,0,1-.9668,1.0807,3.6515,3.6515,0,0,1-1.3646.2272h-4.9486a5.7447,5.7447,0,0,1-2.7859-.5683,3.9529,3.9529,0,0,1-1.65-2.3887,31.7823,31.7823,0,0,0-1.08-3.0717q-1.2539-2.956-2.2748-6.142-1.0235-3.1838-2.2748-6.2566c-.2278-.6823-.438-1.3256-.6256-1.9336a11.6485,11.6485,0,0,0-.6823-1.7058,4.24,4.24,0,0,0-1.0814-1.3652,5.1319,5.1319,0,0,0-1.82-.91,2.9163,2.9163,0,0,0-1.308-.1706c-.4935.0391-1.0058.0573-1.5358.0573H548.2764q-1.0234,0-2.2748-.0573a16.7373,16.7373,0,0,0-2.3893.0573,16.3667,16.3667,0,0,0-2.1036.3412,2.24,2.24,0,0,0-1.4225.91,7.1028,7.1028,0,0,0-1.308,2.56q-.4,1.4229-.9668,2.9-1.1387,2.6183-2.1048,5.46-.9669,2.8448-2.1036,5.46-.23.6827-.5123,1.5358-.2851.8535-.6257,1.763a13.2977,13.2977,0,0,1-.739,1.6492,3.2747,3.2747,0,0,1-.8535,1.0807,4.25,4.25,0,0,1-2.4447.74q-1.5371.0585-3.2428.0566c-.6081,0-1.1935-.0176-1.7625-.0566A2.4693,2.4693,0,0,1,522,80.5343a1.2459,1.2459,0,0,1-.6256-1.0241,4.5477,4.5477,0,0,1,.1145-1.4219,10.9605,10.9605,0,0,1,.4545-1.4786,5.7245,5.7245,0,0,1,.5123-1.0807q1.592-3.6387,2.8438-7.2228,1.25-3.583,2.7292-7.2234,1.0235-2.5,1.9337-4.9479.91-2.4444,1.9336-4.948,3.414-8.19,6.4844-16.55t6.4832-16.6643q1.25-2.9561,2.3327-6.0281,1.0782-3.0713,2.3314-6.0287a28.6246,28.6246,0,0,0,1.08-2.7871A4.1079,4.1079,0,0,1,552.1436.91a3.007,3.007,0,0,1,1.4792-.6823.7786.7786,0,0,1,.5111-.0567.7654.7654,0,0,0,.5124-.0573q2.0469,0,4.7774-.0566a6.62,6.62,0,0,1,3.98.8529,4.424,4.424,0,0,1,1.4225,2.2181,28.32,28.32,0,0,0,1.08,2.7871q1.1367,2.6172,2.0481,5.2325.9083,2.6172,2.047,5.2319.91,2.2773,1.7636,4.6641.8535,2.3887,1.877,4.6635,3.4122,8.3047,6.54,16.7782t6.6544,16.7775a18.4357,18.4357,0,0,1,.739,1.9337c.1888.608.399,1.2513.6256,1.9336q1.252,2.96,2.446,6.0287Q591.8428,72.2305,593.0934,75.1878ZM568.7506,47.5469a1.908,1.908,0,0,0,1.308-1.1374,3.42,3.42,0,0,0,.1146-1.7631,9.4892,9.4892,0,0,0-.569-1.9336c-.2669-.6433-.5124-1.1947-.739-1.6491a1.8044,1.8044,0,0,1-.2279-.7963,1.8421,1.8421,0,0,0-.2278-.7962q-.3419-.9092-.6257-1.877a16.4963,16.4963,0,0,0-.7389-1.9909q-1.707-4.0947-3.015-8.36t-3.0138-8.3608a22.064,22.064,0,0,1-.9668-2.5026,16.82,16.82,0,0,0-.9668-2.3887,9.9845,9.9845,0,0,0-.5123-1.08,1.2455,1.2455,0,0,0-1.1934-.5124,1.7783,1.7783,0,0,1-.4558.3418,1.7806,1.7806,0,0,0-.4544.3411,4.1963,4.1963,0,0,0-.6823,1.1941q-.23.6268-.4557,1.3079a16.6386,16.6386,0,0,0-.91,2.5027,16.4678,16.4678,0,0,1-.91,2.5026,88.1152,88.1152,0,0,0-3.3549,8.9858q-1.4238,4.5509-3.2416,8.8725c-.1536.38-.2845.7591-.3991,1.1374q-.17.5712-.3978,1.1374-.3417.912-.6823,1.82a16.7,16.7,0,0,0-.569,1.82,2.6978,2.6978,0,0,0-.17,1.2513,3.0507,3.0507,0,0,0,.2845,1.1374,2.7209,2.7209,0,0,0,2.388.9668q1.8184.06,3.4128.0573H562.95q1.25,0,3.0716.0567A7.5282,7.5282,0,0,0,568.7506,47.5469Z"/>
      <path id="type_CompoundPathItem_5" data-name="type &lt;CompoundPathItem&gt;" d="M296.7814,120.0948h46.8073a3.3625,3.3625,0,0,1,1.877.4551,2.28,2.28,0,0,1,1.0807,1.6491,16.7365,16.7365,0,0,1,.1706,2.5593,9.52,9.52,0,0,0,.0566,1.0808,1.7082,1.7082,0,0,1-.1705.9668,2.2861,2.2861,0,0,1-1.9909,1.9909,35.4007,35.4007,0,0,1-3.81.1706H312.251q-1.8211,0-3.8672-.0567a4.7424,4.7424,0,0,0-3.0717.739,2.7751,2.7751,0,0,0-1.08,2.3887q-.0585,1.7061-.0572,3.4128v11.2605c0,.6081-.02,1.3653-.0567,2.2755a8.0653,8.0653,0,0,0,.1706,2.2747v.91q.2267.6826.3978,1.308a1.57,1.57,0,0,0,.74.9668,5.563,5.563,0,0,0,3.1849.6256q2.1593-.0556,3.754-.0566h20.4742q1.0244,0,2.2181-.0573,1.1944-.0556,2.3887,0a12.1057,12.1057,0,0,1,2.1615.2845,1.9646,1.9646,0,0,1,1.308.7962,2.5777,2.5777,0,0,1,.569,1.7064v3.5261a2.2572,2.2572,0,0,1-.2279,1.0235q-.4551,1.1386-1.2507,1.2513a1.9063,1.9063,0,0,1-.8535.2279,5.172,5.172,0,0,0-.9668.1133,2.6749,2.6749,0,0,1-.9668.0572,8.9994,8.9994,0,0,0-.9668-.0572H313.0473q-1.8213,0-4.2657-.0567a5.5614,5.5614,0,0,0-3.47.74,2.7465,2.7465,0,0,0-.8528,1.4219,9.3366,9.3366,0,0,0-.3412,2.2181q-.0585,1.2529,0,2.5593.0556,1.3086.0567,2.3314v19.5647q0,1.9356.1139,4.2091a4.98,4.98,0,0,1-.7962,3.4121,1.3434,1.3434,0,0,1-1.0235.5118,5.9591,5.9591,0,0,0-1.3653.2845h-2.1614q-1.5937,0-2.9571-.1133a2.258,2.258,0,0,1-1.9336-1.1381,3.3419,3.3419,0,0,1-.4551-1.8763V126.5787q0-1.25-.0573-2.7872a4.25,4.25,0,0,1,.5124-2.4453,3.3483,3.3483,0,0,1,1.7057-1.1374.7826.7826,0,0,1,.5124-.0567A.7636.7636,0,0,0,296.7814,120.0948Z"/>
      <path id="type_CompoundPathItem_6" data-name="type &lt;CompoundPathItem&gt;" d="M428.2728,198.24a1.7919,1.7919,0,0,1-.4551,2.2754,3.1378,3.1378,0,0,1-1.4219.3978q-.8525.0585-1.763.0573h-3.64a4.5233,4.5233,0,0,1-2.8432-.7963,2.7064,2.7064,0,0,1-1.1947-1.7637q-.285-1.1943-.5117-2.4453a3.4653,3.4653,0,0,1-.1139-.8529v-.74a1.6428,1.6428,0,0,1-.1139-1.0234,1.8716,1.8716,0,0,0,0-.91,8.2524,8.2524,0,0,1-.1133-1.3652V189.709l-.3412-5.1185a5.72,5.72,0,0,1-.2278-1.5925,7.0964,7.0964,0,0,0-.2273-1.7064,31.0622,31.0622,0,0,1-.8535-4.0951,14.6928,14.6928,0,0,0-1.08-3.8672,11.3035,11.3035,0,0,0-7.1667-6.37,9.8971,9.8971,0,0,0-3.2416-.6257q-1.7646-.0556-3.6967-.0572h-20.93c-.5313.1529-1.0059.2845-1.4219.3984a2.0641,2.0641,0,0,0-1.08.74,6.33,6.33,0,0,0-.74,3.6966q.0556,2.56.0566,4.4929v16.4938q0,1.5936.1139,3.9238a7.2982,7.2982,0,0,1-.455,3.4695,1.3943,1.3943,0,0,1-.91,1.0241,1.9018,1.9018,0,0,1-.8529.2272,2.6983,2.6983,0,0,0-.9668.2279,2.9578,2.9578,0,0,1-1.0235.0566c-.3808-.0371-.7591-.0566-1.138-.0566q-1.2528,0-2.4453-.0573a3.6277,3.6277,0,0,1-1.9909-.6257,2.281,2.281,0,0,1-.91-2.1042V126.01q0-1.25-.0572-2.6159a3.3842,3.3842,0,0,1,.5123-2.1615,3.3494,3.3494,0,0,1,1.7058-1.1374.6539.6539,0,0,1,.4551-.0566.6325.6325,0,0,0,.455-.0573h32.9868c.53,0,1.0984-.0176,1.7064-.0566a7.2344,7.2344,0,0,1,1.5925.0566h1.2513q.6826.1152,1.3652.1712.6818.0586,1.4786.1706a14.6054,14.6054,0,0,0,1.877.3412,15.1607,15.1607,0,0,1,1.8769.3411,40.5717,40.5717,0,0,1,3.9812,1.4786,19.0484,19.0484,0,0,1,3.4122,1.9336,16.1042,16.1042,0,0,1,4.6068,4.7207,26.7108,26.7108,0,0,1,2.9,6.5405,10.3667,10.3667,0,0,1,.2845,1.877,10.0042,10.0042,0,0,0,.2846,1.8769V140.57a4.9273,4.9273,0,0,1,.0566,1.308,11.4324,11.4324,0,0,1-.1706,1.308v1.2513a9.9078,9.9078,0,0,0-.2845,1.7064,7.9078,7.9078,0,0,1-.2845,1.5924q-.57,1.7061-1.08,3.2416a12.1279,12.1279,0,0,1-1.4219,2.9011,7.0123,7.0123,0,0,1-.74,1.0234,7.1447,7.1447,0,0,0-.74,1.0235.8717.8717,0,0,1-.2272.1706.9245.9245,0,0,0-.2272.1712c-.153.1523-.3235.3411-.5124.5684s-.3606.4179-.5117.569q-.912.6827-1.7064,1.3079a19.2689,19.2689,0,0,1-1.7058,1.1941,6.9929,6.9929,0,0,0-1.0241.74,1.76,1.76,0,0,0-.5683,1.0807,1.1041,1.1041,0,0,0,.5117,1.1374,7.77,7.77,0,0,0,1.0807.6823,22.1,22.1,0,0,1,2.3315,1.7064,9.4487,9.4487,0,0,1,1.8769,2.1615,10.3969,10.3969,0,0,1,1.82,3.5827q.5673,1.9913,1.1373,4.2657c.0743.608.1511,1.194.2273,1.763s.151,1.1569.2278,1.7631a3.8131,3.8131,0,0,1,.1133,1.5925,3.7583,3.7583,0,0,0,.114,1.5924v1.0241a4.28,4.28,0,0,1,.1139,1.7058,4.8893,4.8893,0,0,0,.1133,1.82,2.2487,2.2487,0,0,1,.0573.8529,2.8757,2.8757,0,0,0,.0566.9668,23.3063,23.3063,0,0,1,.3412,2.3321,9.9565,9.9565,0,0,0,.455,2.2181,5.9109,5.9109,0,0,1,.2845,1.308,5.6877,5.6877,0,0,0,.2846,1.3079ZM414.51,151.0347a10.2216,10.2216,0,0,0,1.194-2.6166q.3975-1.3651.74-2.957V144.437a10.5083,10.5083,0,0,0,.1139-3.47,14.5064,14.5064,0,0,0-.6829-3.1276,11.9627,11.9627,0,0,0-7.1661-7.8491,15.8521,15.8521,0,0,0-5.2891-1.0234q-3.0157-.1123-6.1993-.114H378.4512a1.1237,1.1237,0,0,1-.5117.114,2.0167,2.0167,0,0,0-.6257.1139,2.4516,2.4516,0,0,0-1.82,1.4785,6.6372,6.6372,0,0,0-.3978,2.8438q.0556,1.82.0566,3.2989v13.0809q0,1.7061-.0566,3.5827a4.3943,4.3943,0,0,0,.74,2.9011,2.4259,2.4259,0,0,0,1.7057.9668,16.9833,16.9833,0,0,0,2.5027.1706h7.0521q4.4365,0,8.6453.0566a50.2835,50.2835,0,0,0,7.7918-.4551,21.94,21.94,0,0,0,6.4265-1.8769A10.779,10.779,0,0,0,414.51,151.0347Z"/>
      <path id="type_CompoundPathItem_7" data-name="type &lt;CompoundPathItem&gt;" d="M451.932,120.3227c.53,0,1.138-.0183,1.82-.0573a17.806,17.806,0,0,1,1.99,0,8.2888,8.2888,0,0,1,1.763.2845,2.1046,2.1046,0,0,1,1.1381.6823,3.5434,3.5434,0,0,1,.7389,2.2182q.0567,1.4238.0573,2.9V197.728a4.8368,4.8368,0,0,1-.569,2.5593,1.768,1.768,0,0,1-1.0808.683q-.626.1141-1.5351.3411h-2.1615q-1.5947,0-2.9577-.1139a2.2607,2.2607,0,0,1-1.9337-1.1374,3.3466,3.3466,0,0,1-.455-1.877V126.8059q0-1.25-.0567-2.7865a4.2571,4.2571,0,0,1,.5117-2.446,2.7283,2.7283,0,0,1,1.82-1.1374.6526.6526,0,0,1,.455-.0566A.6336.6336,0,0,0,451.932,120.3227Z"/>
      <path id="type_CompoundPathItem_8" data-name="type &lt;CompoundPathItem&gt;" d="M486.3967,120.0948h46.9772q1.2519,0,2.5026-.0566a3.1949,3.1949,0,0,1,2.0482.5117,2.0848,2.0848,0,0,1,.569.569q.2267.3409.4545.6823a10.2949,10.2949,0,0,1,.2278,2.5593,11.8124,11.8124,0,0,1-.2278,2.6732,2.183,2.183,0,0,1-1.9337,1.7631,31.2932,31.2932,0,0,1-3.526.1706H503.0037q-1.82,0-4.2651-.0567a6.8875,6.8875,0,0,0-3.584.6257,2.661,2.661,0,0,0-1.1934,2.3887q-.0585,1.7061-.0579,3.5261v11.6023q0,1.2529-.0566,2.9571a11.1711,11.1711,0,0,0,.1712,2.73,2.4919,2.4919,0,0,0,1.3646,1.82,6.9248,6.9248,0,0,0,1.5925.4551h1.138a2.6881,2.6881,0,0,0,.9668.0566,9.9748,9.9748,0,0,1,1.08-.0566h26.1618q1.0235,0,2.2748-.0573,1.2519-.0556,2.5593,0a21.5777,21.5777,0,0,1,2.3893.2279,4.7061,4.7061,0,0,1,1.6491.5117,1.8213,1.8213,0,0,1,.569,1.0234,11.5576,11.5576,0,0,1,.3412,1.7064,10.4116,10.4116,0,0,1,.0566,1.877,6.5267,6.5267,0,0,1-.2845,1.6491,2.1409,2.1409,0,0,1-1.0234,1.4792,1.0664,1.0664,0,0,1-.6257.2839,4.5031,4.5031,0,0,0-.7389.1706h-.6823a3.7662,3.7662,0,0,1-1.1381.0572c-.38-.0371-.7591-.0572-1.1367-.0572h-28.21q-1.3653,0-2.6739-.0567a12.7948,12.7948,0,0,0-2.4447.1139,6.1756,6.1756,0,0,0-1.9915.6257,2.5172,2.5172,0,0,0-1.1934,1.5925,4.14,4.14,0,0,0-.1712,1.5924q.0566.9111.0566,1.82v17.176q0,1.5947.1146,2.9005a2.41,2.41,0,0,0,.91,1.8769,3.3646,3.3646,0,0,0,1.8191.6257q1.0234.0585,2.2748.0573H533.83q.9082,0,1.82-.0573a4.2331,4.2331,0,0,1,1.5925.1706,3.126,3.126,0,0,1,1.8191,1.2513,2.9042,2.9042,0,0,1,.3411,1.1374c.0756.5319.1322,1.0807.1712,1.65a8.6875,8.6875,0,0,1-.0566,1.7058,13.2815,13.2815,0,0,1-.2279,1.3086,2.929,2.929,0,0,1-1.0234,1.2507,3.12,3.12,0,0,1-1.7637.4551H488.217a18.6817,18.6817,0,0,1-2.7305-.1706,2.3021,2.3021,0,0,1-1.7057-1.0808,3.1048,3.1048,0,0,1-.4558-1.763V122.9386a2.482,2.482,0,0,1,.4558-1.5924,2.6371,2.6371,0,0,1,1.7057-1.1374.6457.6457,0,0,1,.4545-.0567A.6343.6343,0,0,0,486.3967,120.0948Z"/>
      <path id="type_CompoundPathItem_9" data-name="type &lt;CompoundPathItem&gt;" d="M561.6972,120.0948q2.0469,0,4.55-.0566a6.1424,6.1424,0,0,1,3.754.8529,7.0259,7.0259,0,0,1,1.7058,1.9909q.7948,1.3086,1.4791,2.3314,1.4768,2.2773,3.0138,4.6068,1.5351,2.3331,3.015,4.7208.7931,1.2529,1.6491,2.4454.8535,1.1943,1.6491,2.4459,3.4122,5.46,6.9389,10.8628,3.5235,5.4044,7.0522,10.8628a27.1365,27.1365,0,0,0,1.99,3.0144,28.0541,28.0541,0,0,1,1.9916,3.0143q1.9317,3.0714,3.9239,6.0854,1.9884,3.0156,3.9239,5.9721.5684.912,1.4225,2.2181a2.4746,2.4746,0,0,0,2.1035,1.308q.5685-.2266.5691-.3412a2.94,2.94,0,0,0,.569-1.9336V127.4888a14.1511,14.1511,0,0,0-.1133-1.7064,4.1924,4.1924,0,0,1,.1133-1.7064v-1.2513a2.8425,2.8425,0,0,0,.2845-.91,1.7834,1.7834,0,0,1,.2845-.7963,2.5406,2.5406,0,0,1,2.0469-.9668q1.3653-.0566,2.9571-.0573h1.4225a3.52,3.52,0,0,1,1.308.2279,2.3407,2.3407,0,0,1,1.5358,1.99,28.74,28.74,0,0,1,.17,3.3555v69.7281c0,.8353.0177,1.6686.0579,2.502a2.7414,2.7414,0,0,1-.5123,1.9336,1.93,1.93,0,0,1-1.08.8536q-.627.17-1.5358.3978H614.192a5.2031,5.2031,0,0,1-2.3327-.4551,2.8051,2.8051,0,0,1-1.4212-1.1374q-.5118-.7941-1.0814-1.5925-.91-1.3642-1.8757-2.8438-.9687-1.4766-1.877-2.957-4.0957-6.1428-8.0769-12.1714t-7.9623-12.2847q-2.1621-3.4122-4.38-6.711t-4.3784-6.7111q-3.7539-5.9132-7.849-11.9435-.4551-.795-.91-1.5358a4.57,4.57,0,0,0-1.2513-1.308,1.7244,1.7244,0,0,1-.4545-.3411.5189.5189,0,0,0-.569-.1139,1.095,1.095,0,0,0-.7956.91,9.1865,9.1865,0,0,1-.3424,1.3646v.7963a4.4485,4.4485,0,0,0-.1133,1.763,16.4209,16.4209,0,0,1,.1133,1.877v49.0254q0,.5712.0579,1.3652a3.0965,3.0965,0,0,1-.1712,1.3646v.91a7.0986,7.0986,0,0,1-.4544,1.5925,1.1964,1.1964,0,0,1-.7969.74c-.38.1133-.7956.2467-1.2513.3978h-2.2748q-1.5937,0-2.8438-.1133a2.2379,2.2379,0,0,1-1.82-1.0241,2.8394,2.8394,0,0,1-.5677-1.877v-74.391a4.5731,4.5731,0,0,1,.5677-2.446,2.9325,2.9325,0,0,1,1.3659-1.0234,1.08,1.08,0,0,1,.6256-.0567A1.0577,1.0577,0,0,0,561.6972,120.0948Z"/>
      <path id="type_CompoundPathItem_10" data-name="type &lt;CompoundPathItem&gt;" d="M712.9805,158.6559c0,.6074.0176,1.27.0567,1.99a5.7781,5.7781,0,0,1-.17,1.8769v1.1374a1.7742,1.7742,0,0,0-.0566.7963,1.2489,1.2489,0,0,1-.0579.6823,6.12,6.12,0,0,0-.1133,1.1946,6.1952,6.1952,0,0,1-.1133,1.1941,23.0475,23.0475,0,0,0-.4557,3.3555,12.265,12.265,0,0,1-.6823,3.3561q-.3418,1.3644-.739,2.7865a24.484,24.484,0,0,1-.9668,2.7872,38.6867,38.6867,0,0,1-4.8341,8.8152,26.44,26.44,0,0,1-7.2234,6.6544,27.5427,27.5427,0,0,1-4.6074,2.3314q-2.4472.9678-5.2885,1.877a11.9694,11.9694,0,0,1-2.6739.6256,22.5662,22.5662,0,0,0-2.7858.5118,13.57,13.57,0,0,1-2.446.2278,11.8831,11.8831,0,0,0-2.3315.2273h-1.5924a1.7773,1.7773,0,0,1-.7969.0572,7.39,7.39,0,0,0-.91-.0572H651.4432a23.5285,23.5285,0,0,1-3.015-.1706,2.0314,2.0314,0,0,1-1.7624-1.4219,5.5408,5.5408,0,0,1-.399-2.6159q.0565-1.7061.0579-3.0711V126.5787q0-1.3653-.0579-2.9a4.2555,4.2555,0,0,1,.5123-2.446,2.3027,2.3027,0,0,1,1.7058-1.0234.6482.6482,0,0,1,.4557-.0567.63.63,0,0,0,.4544-.0573h24.684a9.5313,9.5313,0,0,0,1.08-.0566,2.7787,2.7787,0,0,1,.9668.0566,2.1144,2.1144,0,0,0,1.1946.114,3.2026,3.2026,0,0,1,1.1947,0,6.3641,6.3641,0,0,0,1.2513.1139,6.5245,6.5245,0,0,1,1.2513.1133,5.4291,5.4291,0,0,0,1.08.1139,5.5943,5.5943,0,0,1,1.08.114q1.2519.2293,2.3893.3978a16.4954,16.4954,0,0,1,2.2748.5117q2.5.7978,4.7774,1.5358A17.975,17.975,0,0,1,696.828,125.1a31.3707,31.3707,0,0,1,2.8438,1.82,8.398,8.398,0,0,1,.6823.5117,7.9193,7.9193,0,0,0,.6835.5124c.4545.38.87.7585,1.2513,1.1374q.5666.57,1.1368,1.1374a6.5108,6.5108,0,0,0,.91.7962,10.7619,10.7619,0,0,0,.9668,1.2513,11.0409,11.0409,0,0,1,.9668,1.2513,8.6739,8.6739,0,0,1,.9668,1.4213,13.848,13.848,0,0,0,.9668,1.5358,6.5267,6.5267,0,0,1,.3412.7963,6.0142,6.0142,0,0,0,.3411.7962q.4533.912.7969,1.763.34.8535.7956,1.7631a20.1754,20.1754,0,0,1,.74,2.5593q.2814,1.3095.6257,2.5592a4.1583,4.1583,0,0,1,.2266,1.3086,4.1143,4.1143,0,0,0,.2278,1.308,18.4351,18.4351,0,0,1,.6257,4.4929Q712.98,156.2684,712.9805,158.6559Zm-10.8061,5.9148a12.4983,12.4983,0,0,0,.2278-2.446v-2.5593c0-.6061.0177-1.194.0567-1.763a4.8142,4.8142,0,0,0-.17-1.6491,4.15,4.15,0,0,0-.0579-.6823,4.7863,4.7863,0,0,1-.0566-.7963,18.5865,18.5865,0,0,1-.2845-2.5026,11.5306,11.5306,0,0,0-.3978-2.5026q-.2285-.9093-.3978-1.7631c-.1146-.569-.2468-1.155-.3978-1.763a29.7777,29.7777,0,0,0-3.185-7.1661,19.6729,19.6729,0,0,0-9.4415-7.7352,8.9124,8.9124,0,0,0-2.1615-.8529q-1.1386-.2823-2.388-.6256a11.7686,11.7686,0,0,0-2.5593-.3984,18.6573,18.6573,0,0,1-2.56-.2839h-2.3881a2.5591,2.5591,0,0,0-.7969-.1139H660.429a.91.91,0,0,1-.569.0566.9311.9311,0,0,0-.569.0573c-.38.1523-.7389.304-1.08.4551a1.454,1.454,0,0,0-.7389.6823,6.9408,6.9408,0,0,0-.4558,1.5924v.91a4.25,4.25,0,0,0-.1133,1.0235v53.7461a3.9838,3.9838,0,0,0,.1133.9668v.91a6.8923,6.8923,0,0,0,.4558,1.5925q.9082,1.3643,3.4115,1.3079t4.7774-.0566h6.5977q.795,0,1.7071.0566a4.1571,4.1571,0,0,0,1.5924-.1705h1.25a4.54,4.54,0,0,1,1.2513-.0573,5.406,5.406,0,0,0,1.3659-.0567,5.9259,5.9259,0,0,1,1.3646-.2845,7.6764,7.6764,0,0,0,1.4792-.2839q1.25-.3417,2.4447-.6829a17.4225,17.4225,0,0,0,2.446-.91,22.0441,22.0441,0,0,0,7.2234-4.9479,25.8354,25.8354,0,0,0,4.9473-7.45,18.5049,18.5049,0,0,0,.9668-2.6732q.3984-1.421.8535-2.9005a18.5863,18.5863,0,0,0,.5124-2.6732q.17-1.421.3978-2.7871a5.16,5.16,0,0,0,.1133-.9668Z"/>
      <path id="type_CompoundPathItem_11" data-name="type &lt;CompoundPathItem&gt;" d="M735.3884,120.0948c.53,0,1.138-.0176,1.82-.0566a17.8061,17.8061,0,0,1,1.99,0,8.3029,8.3029,0,0,1,1.7637.2845,2.1006,2.1006,0,0,1,1.1367.6823,3.8817,3.8817,0,0,1,.6823,2.3887v64.7229a6.9528,6.9528,0,0,0,.3412,2.3887,3.0412,3.0412,0,0,0,1.2513,1.3646,4.7979,4.7979,0,0,0,1.4792.2845c.6067.039,1.2123.0573,1.82.0573h32.645c.53,0,1.0814-.0183,1.65-.0573a4.0113,4.0113,0,0,1,1.5345.1706,3.2069,3.2069,0,0,1,1.9349,1.2513,7.49,7.49,0,0,1,.2266,1.1374c.0755.5319.1322,1.0807.1712,1.65a8.7969,8.7969,0,0,1-.0566,1.7058,13.2815,13.2815,0,0,1-.2279,1.3086,2.0753,2.0753,0,0,1-1.0235,1.2507,2.59,2.59,0,0,1-1.6491.4551h-45.785a18.6756,18.6756,0,0,1-2.7293-.1706,2.3069,2.3069,0,0,1-1.707-1.0808,3.115,3.115,0,0,1-.4544-1.763v-73.083c0-.6823.0176-1.3653.0566-2.0476a3.5067,3.5067,0,0,1,.3978-1.5924,3.35,3.35,0,0,1,1.707-1.1374.7792.7792,0,0,1,.5111-.0567A.7646.7646,0,0,0,735.3884,120.0948Z"/>
      <path id="type_CompoundPathItem_12" data-name="type &lt;CompoundPathItem&gt;" d="M796.6991,120.0948q1.707,0,4.21-.1139a8.5729,8.5729,0,0,1,3.7526.4551,3.9467,3.9467,0,0,1,1.4226,1.1374q.5117.6826,1.08,1.4792.6836,1.1376,1.3646,2.2747.6836,1.1386,1.4792,2.2748,3.1836,5.0069,6.3132,9.8966,3.127,4.8916,6.1987,9.896,1.1367,1.82,2.2181,3.5261t2.2181,3.4121q.4531.7979.9668,1.5359a2.3583,2.3583,0,0,0,1.4225.9668,1.5127,1.5127,0,0,0,1.5359-.3978,4.5434,4.5434,0,0,0,.8522-1.0808,37.3949,37.3949,0,0,0,2.1048-3.2988q.9649-1.7061,1.99-3.2989,3.0723-4.8888,6.0287-9.782,2.9571-4.89,6.0288-9.6688.91-1.4766,1.7636-2.9.8537-1.4209,1.7625-2.7872.4532-.794.91-1.4785a5.8418,5.8418,0,0,1,1.138-1.2513,4.64,4.64,0,0,1,2.9-.7963h3.8106q.9082,0,1.82.0573a2.5811,2.5811,0,0,1,1.4779.5118,1.2811,1.2811,0,0,1,.3978,1.6491,6.3766,6.3766,0,0,1-.7389,1.5358q-.9122,1.3643-1.7058,2.6732-.797,1.3086-1.707,2.5593a18.37,18.37,0,0,0-1.0235,1.5925q-.4551.7968-1.0235,1.7057-3.9823,5.8019-7.7345,11.7163-3.7539,5.9161-7.5078,11.9435-1.2538,1.8213-2.3881,3.5834-1.1386,1.7646-2.3894,3.6967-.7968,1.2528-1.5358,2.332a11.7088,11.7088,0,0,0-1.3079,2.6726,4.8206,4.8206,0,0,0-.2279,1.5358v22.5791a17.3028,17.3028,0,0,0,.1146,1.9336,5.4921,5.4921,0,0,1-.1146,1.9337V198.24a3.1791,3.1791,0,0,1-1.5925,2.6165.9168.9168,0,0,1-.6823.1706,2.0119,2.0119,0,0,0-.7956.0567,2.6758,2.6758,0,0,1-.9668.0572,9.86,9.86,0,0,0-1.0814-.0572h-2.7292a2.2089,2.2089,0,0,1-1.9336-.7963,2.74,2.74,0,0,1-.6257-1.5352,20.7521,20.7521,0,0,1-.2278-2.2754q-.0585-1.1943,0-2.4453.0565-1.25.0566-2.2748v-20.19a4.0525,4.0525,0,0,0-.1133-.9668V169.12a12.2961,12.2961,0,0,0-1.4225-3.2415q-.8535-1.3068-1.7624-2.7872l-4.4363-6.8243q-3.8691-5.8019-7.5079-11.5457-3.6407-5.7423-7.5066-11.5457-1.48-2.2736-2.9017-4.379-1.4219-2.1036-2.9-4.38a6.591,6.591,0,0,1-1.1368-2.1609c-.1536-.53-.1145-.91.1133-1.1374a.7878.7878,0,0,1,.6257-.6829,6.8107,6.8107,0,0,0,1.0813-.3412.9453.9453,0,0,1,.2833.0573A.2539.2539,0,0,0,796.6991,120.0948Z"/>
      <path id="type_CompoundPathItem_13" data-name="type &lt;CompoundPathItem&gt;" d="M319.5311,238.3694a41.5816,41.5816,0,0,1,11.4884,1.0241,29.335,29.335,0,0,1,8.8725,3.7533q.6827.456,1.308.7962a5.3575,5.3575,0,0,1,1.1947.91,4.0352,4.0352,0,0,0,.4544.3984,4.4762,4.4762,0,0,1,.4551.3978q.2267.2295.569.5117a2.9943,2.9943,0,0,1,.5684.6257q.4531.5712.91,1.138.4533.57.91,1.1374a5.7816,5.7816,0,0,1,.739,1.194,11.632,11.632,0,0,0,.6256,1.1947,13.4255,13.4255,0,0,1,1.5925,3.5827q.5683,1.9913,1.138,4.1518a6.7815,6.7815,0,0,1,.1706,1.9909,3.6236,3.6236,0,0,1-.3985,1.6491,2.3619,2.3619,0,0,1-1.82.91q-1.2529.1141-2.6166.1139h-1.0235a3.7161,3.7161,0,0,1-.91-.1139,5.1523,5.1523,0,0,0-.9668-.1139,1.89,1.89,0,0,1-.8529-.2273,2.8151,2.8151,0,0,1-.4551-.2845,3.9878,3.9878,0,0,1-.4551-.3984,6.7383,6.7383,0,0,1-.9668-2.502,10.1687,10.1687,0,0,0-.8529-2.6166,14.6688,14.6688,0,0,0-5.46-6.8249,18.9364,18.9364,0,0,0-6.256-2.73,5.9689,5.9689,0,0,0-1.3652-.2845,5.756,5.756,0,0,1-1.3646-.2839h-.91a7.5252,7.5252,0,0,0-1.82-.2278h-1.82a23.7962,23.7962,0,0,0-9.896,1.82,14.8465,14.8465,0,0,0-4.0951,2.4454,9.5253,9.5253,0,0,0-2.73,3.8106,6.8449,6.8449,0,0,0-.6257,1.8769q-.1708.9678-.3978,2.1042a6.9291,6.9291,0,0,0-.1712,2.0476,8.6091,8.6091,0,0,0,.2845,1.9336,10.7943,10.7943,0,0,0,1.9909,3.9812,13.2122,13.2122,0,0,0,3.3555,2.6165,19.28,19.28,0,0,0,5.5737,2.3887q3.0712.7969,6.37,1.7058a18.5169,18.5169,0,0,0,2.0476.3412,10.0164,10.0164,0,0,1,2.0475.455,28.5107,28.5107,0,0,0,3.3555.74,19.078,19.078,0,0,1,3.3556.8529c.3021.0768.5683.1334.7962.1706q.3408.0585.7962.1706,1.0235.2294,2.0476.5123,1.0235.2851,2.0475.6257,2.2736.7968,4.4363,1.7057a26.6375,26.6375,0,0,1,4.0945,2.1615,23.7,23.7,0,0,1,4.4935,3.6967,17.3042,17.3042,0,0,1,3.2416,4.948,11.0143,11.0143,0,0,1,.6823,2.0475c.151.6823.3021,1.4043.4551,2.1615a3.5219,3.5219,0,0,1,.2272,1.308,4.4279,4.4279,0,0,0,.2278,1.4219v2.2747a3.7113,3.7113,0,0,0-.1139.91v.91a10.0946,10.0946,0,0,0-.2845,1.8763,6.4208,6.4208,0,0,1-.3978,1.877q-.57,1.7061-1.2513,3.2989a14.2681,14.2681,0,0,1-1.7064,2.9577,18.0824,18.0824,0,0,1-4.8907,5.0046,43.4585,43.4585,0,0,1-6.37,3.64q-1.1386.456-2.2181.7963-1.083.3408-2.3321.6823a12.0716,12.0716,0,0,1-2.6165.6256,23.1338,23.1338,0,0,0-2.73.5117,6.1557,6.1557,0,0,1-1.194.114,6.0016,6.0016,0,0,0-1.1947.1139c-.4551,0-.9095.0176-1.3646.0567q-.6827.0556-1.3652.0566a12,12,0,0,1-3.2989,0H319.645a11.5439,11.5439,0,0,0-2.2754-.2272,9.9711,9.9711,0,0,1-2.1609-.2273,7.4157,7.4157,0,0,0-.91-.1705q-.456-.06-1.0241-.1712-1.2529-.2286-2.3314-.4545a13.5977,13.5977,0,0,1-2.2182-.6829,32.3227,32.3227,0,0,1-9.3842-4.6635,25.2942,25.2942,0,0,1-6.5405-7.394,19.0388,19.0388,0,0,1-1.5358-3.071q-.6259-1.5918-1.194-3.4121a5.7344,5.7344,0,0,1-.2845-1.3653,4.3875,4.3875,0,0,0-.2845-1.2513,10.7125,10.7125,0,0,1-.2272-2.3314,2.5837,2.5837,0,0,1,.5683-1.877,2.4284,2.4284,0,0,1,1.877-.91c.8711-.0742,1.724-.1139,2.5593-.1139h.9668a2.7857,2.7857,0,0,1,.8535.1139,2.5693,2.5693,0,0,0,.9095.0567,1.3332,1.3332,0,0,1,.7963.1712,2.4965,2.4965,0,0,1,1.0241.91,2.8208,2.8208,0,0,1,.3978,1.1947,5.69,5.69,0,0,0,.2845,1.308q.2265.7968.3978,1.5924a8.576,8.576,0,0,0,.5123,1.5925,17.1617,17.1617,0,0,0,5.8009,7.7351,17.6656,17.6656,0,0,0,4.209,2.3887q2.2735.9111,4.8907,1.7058a14.8634,14.8634,0,0,0,1.82.3418q.9091.1141,1.82.2272a3.6835,3.6835,0,0,1,.569.0566,4.0181,4.0181,0,0,0,.6823.0573,2.5669,2.5669,0,0,0,1.0807,0,2.1434,2.1434,0,0,1,1.1941.1133,5.6638,5.6638,0,0,0,1.3086.1139,3.8324,3.8324,0,0,0,1.4218-.2272h.7963a5.8387,5.8387,0,0,1,1.1374-.1139,5.7278,5.7278,0,0,0,1.1374-.1139,1.2389,1.2389,0,0,1,.6256-.0567,1.1932,1.1932,0,0,0,.739-.1706q.9092-.2265,1.9342-.3984a10.3037,10.3037,0,0,0,1.9336-.5117,28.0181,28.0181,0,0,0,5.2892-2.9005,10.5959,10.5959,0,0,0,3.5834-4.4929,16.9678,16.9678,0,0,0,.5683-1.82q.2267-.9092.4551-1.82a9.0218,9.0218,0,0,0,.2272-2.1615,7.6659,7.6659,0,0,0-.2272-2.0475,2.6576,2.6576,0,0,1-.2272-.9668,1.9291,1.9291,0,0,0-.2279-.8529,9.9384,9.9384,0,0,0-1.82-3.2422,15.7952,15.7952,0,0,0-2.73-2.4454,20.91,20.91,0,0,0-5.3464-2.73,59.5492,59.5492,0,0,0-6.1993-1.7631q-3.2423-.7383-6.6544-1.4219t-6.5971-1.5924q-1.8213-.5685-3.64-.9669a18.8118,18.8118,0,0,1-3.4128-1.0807.9019.9019,0,0,0-.3412-.1139.86.86,0,0,1-.3411-.1133q-1.1386-.4531-2.2748-.91a11.65,11.65,0,0,1-2.1615-1.1374,34.888,34.888,0,0,1-4.7774-3.4694,12.9461,12.9461,0,0,1-3.4122-4.8341,7.3222,7.3222,0,0,1-.7962-2.2181q-.2295-1.1943-.569-2.446a4.9964,4.9964,0,0,0-.0567-.7962,4.0282,4.0282,0,0,1-.0572-.6823,10.1038,10.1038,0,0,1-.1133-3.4695,19.0313,19.0313,0,0,1,.5683-3.2415q.3418-1.251.6257-2.3888a13.0235,13.0235,0,0,1,.74-2.1614,18.3347,18.3347,0,0,1,4.0951-5.7443,37.3612,37.3612,0,0,1,5.5736-4.2656,1.0314,1.0314,0,0,1,.5684-.2845,1.0129,1.0129,0,0,0,.569-.2839,32.0774,32.0774,0,0,1,5.8009-2.1615q.9091-.2265,1.7064-.3978c.5293-.1139,1.0983-.2455,1.7064-.3984a8.2122,8.2122,0,0,1,1.99-.2272,8.1467,8.1467,0,0,0,1.991-.2279,2.3133,2.3133,0,0,1,1.0234,0C319.076,238.56,319.3781,238.5223,319.5311,238.3694Z"/>
      <path id="type_CompoundPathItem_14" data-name="type &lt;CompoundPathItem&gt;" d="M433.1648,261.5741a10.5294,10.5294,0,0,1,.2272,2.446,9.0512,9.0512,0,0,1-.2272,2.3314,3.3315,3.3315,0,0,0-.114,1.4792,3.3713,3.3713,0,0,1-.1132,1.4785,8.4408,8.4408,0,0,0-.3418,1.4219,8.7135,8.7135,0,0,1-.3412,1.4219q-.2293.912-.5117,1.7064-.2852.7968-.6257,1.5925a1.7764,1.7764,0,0,0-.2845.625.997.997,0,0,1-.2839.5124,27.51,27.51,0,0,1-2.73,4.0944,3.11,3.11,0,0,1-.739.91,8.0544,8.0544,0,0,1-.8535.6823,2.57,2.57,0,0,0-.7962.6257,3.334,3.334,0,0,1-.6824.6256l-2.3887,1.3653a8.81,8.81,0,0,1-2.957,1.3646q-1.7071.456-3.4128.91a9.9222,9.9222,0,0,1-1.82.2845,10.2286,10.2286,0,0,0-1.82.2845,2.1846,2.1846,0,0,1-.8528.0567,1.6293,1.6293,0,0,0-.74.0566,2.562,2.562,0,0,1-1.0808,0,2.6465,2.6465,0,0,0-1.08,0h-17.176q-1.707,0-3.6973-.0566a4.63,4.63,0,0,0-3.0143.74q-1.253.9111-1.1941,3.2989.0558,2.3886.0567,4.4356v16.7215q0,1.48.0573,3.6967a5.9662,5.9662,0,0,1-.5124,3.1277,1.93,1.93,0,0,1-1.08.8535q-.627.17-1.5358.3978h-2.0476q-1.7061,0-3.071-.1133a2.2581,2.2581,0,0,1-1.9336-1.138,3.3431,3.3431,0,0,1-.4551-1.8764V246.56q0-1.25-.0573-2.7872a4.25,4.25,0,0,1,.5124-2.4453,3.3483,3.3483,0,0,1,1.7057-1.1374.647.647,0,0,1,.4551-.0567.6322.6322,0,0,0,.4551-.0572h25.8207q4.3222,0,8.4747.0572a26.3937,26.3937,0,0,1,7.4506,1.08,24.5659,24.5659,0,0,1,8.3035,4.4362,20.1252,20.1252,0,0,1,5.2325,7.5073,12.54,12.54,0,0,1,.8529,2.6165q.2823,1.3653.74,2.8438a3.3731,3.3731,0,0,1,.1132,1.4786A3.3262,3.3262,0,0,0,433.1648,261.5741Zm-10.6922,4.0951a8.5146,8.5146,0,0,0,.1139-3.6967,34.1054,34.1054,0,0,0-.6829-3.3555,13.4233,13.4233,0,0,0-3.0144-5.0619,15.0348,15.0348,0,0,0-4.8341-3.1283,18.6032,18.6032,0,0,0-5.7442-1.2513q-3.2422-.2266-6.7683-.2272H386.8692a1.1324,1.1324,0,0,1-.5117.1139,2.0317,2.0317,0,0,0-.6256.1133,2.4541,2.4541,0,0,0-1.82,1.4792,7.6144,7.6144,0,0,0-.3978,3.0143q.0558,1.876.0567,3.4688v13.65q0,1.7061-.0567,3.7539a5.8725,5.8725,0,0,0,.6257,3.185,2.3457,2.3457,0,0,0,1.763,1.0807,19.0812,19.0812,0,0,0,2.6732.1706h15.3557q1.7061,0,3.5261-.0573a15.1646,15.1646,0,0,0,3.185-.3978,31.8228,31.8228,0,0,0,5.403-1.877A9.774,9.774,0,0,0,419.97,273.29a12.4766,12.4766,0,0,0,1.4219-2.8438q.5118-1.4766.9668-3.2989A6.8237,6.8237,0,0,0,422.4726,265.6692Z"/>
      <path id="type_CompoundPathItem_15" data-name="type &lt;CompoundPathItem&gt;" d="M515.7447,315.15q.2267.57.569,1.3652a8.3487,8.3487,0,0,1,.5124,1.6491,3.7683,3.7683,0,0,1,0,1.5925,1.531,1.531,0,0,1-.9668,1.0808,3.6606,3.6606,0,0,1-1.3659.2272H509.546a5.7454,5.7454,0,0,1-2.7871-.5684,3.9508,3.9508,0,0,1-1.6491-2.3887,31.784,31.784,0,0,0-1.0814-3.0716q-1.2519-2.9562-2.2748-6.1421-1.0235-3.1836-2.2747-6.2565-.3419-1.0236-.6257-1.9337a11.6472,11.6472,0,0,0-.6823-1.7057,4.2544,4.2544,0,0,0-1.08-1.3653,5.1525,5.1525,0,0,0-1.82-.91,2.9135,2.9135,0,0,0-1.308-.1706q-.742.0585-1.5358.0573H470.9283q-1.0234,0-2.2747-.0573a16.7142,16.7142,0,0,0-2.3887.0573,16.3569,16.3569,0,0,0-2.1042.3411,2.24,2.24,0,0,0-1.4219.9095,7.1008,7.1008,0,0,0-1.308,2.56q-.4,1.4228-.9668,2.9-1.1386,2.6181-2.1048,5.46-.9678,2.8447-2.1042,5.46-.23.6826-.5118,1.5358-.2852.8535-.6256,1.7631a13.31,13.31,0,0,1-.74,1.6491,3.2689,3.2689,0,0,1-.8529,1.0807,4.2521,4.2521,0,0,1-2.4454.74q-1.536.0587-3.2422.0567c-.608,0-1.194-.0176-1.763-.0567a2.469,2.469,0,0,1-1.4219-.5117,1.246,1.246,0,0,1-.6257-1.0241,4.5649,4.5649,0,0,1,.114-1.4219,11.0492,11.0492,0,0,1,.455-1.4785,5.7306,5.7306,0,0,1,.5118-1.0808q1.5918-3.6387,2.8438-7.2227,1.25-3.5831,2.73-7.2234,1.0234-2.5,1.9336-4.948.9093-2.4444,1.9337-4.948,3.4131-8.19,6.4838-16.55t6.4838-16.6643q1.25-2.9562,2.332-6.0281,1.0793-3.0714,2.3308-6.0287A28.6433,28.6433,0,0,0,473.26,243.09a4.1014,4.1014,0,0,1,1.5358-2.2181,3.0022,3.0022,0,0,1,1.4779-.6823.7831.7831,0,0,1,.5124-.0567.7619.7619,0,0,0,.5111-.0572q2.0489,0,4.7774-.0567a6.6287,6.6287,0,0,1,3.9818.8529,4.4329,4.4329,0,0,1,1.4213,2.2181,28.6184,28.6184,0,0,0,1.0813,2.7872q1.1349,2.6172,2.0469,5.2325.91,2.6171,2.0482,5.2318.9083,2.2773,1.7624,4.6641.8535,2.3888,1.877,4.6635,3.4122,8.3047,6.5411,16.7782,3.127,8.4747,6.6544,16.7776a18.4326,18.4326,0,0,1,.7389,1.9336q.2833.912.6257,1.9336,1.25,2.96,2.446,6.0288Q514.4934,312.1923,515.7447,315.15Zm-24.3415-27.641a1.9077,1.9077,0,0,0,1.308-1.1374,3.4076,3.4076,0,0,0,.1133-1.763,9.3283,9.3283,0,0,0-.569-1.9337c-.2657-.6432-.5111-1.1946-.739-1.6491a1.822,1.822,0,0,1-.2279-.7962,1.8382,1.8382,0,0,0-.2265-.7963c-.2279-.6061-.4381-1.2318-.6257-1.8769a16.4987,16.4987,0,0,0-.74-1.9909q-1.7052-4.0948-3.0138-8.36t-3.0149-8.3608a22.2864,22.2864,0,0,1-.9669-2.5026,16.668,16.668,0,0,0-.9668-2.3887,9.97,9.97,0,0,0-.5111-1.08,1.2477,1.2477,0,0,0-1.1946-.5124,1.7536,1.7536,0,0,1-.4545.3418,1.7638,1.7638,0,0,0-.4557.3412,4.2284,4.2284,0,0,0-.6823,1.194q-.2285.627-.4545,1.308a16.3673,16.3673,0,0,0-.91,2.5026,16.6013,16.6013,0,0,1-.91,2.5026,88.4587,88.4587,0,0,0-3.3561,8.9859q-1.4229,4.5507-3.241,8.8725c-.1529.38-.2845.7591-.3984,1.1373-.1133.3809-.2468.7591-.3978,1.1374q-.3418.9122-.683,1.82a16.791,16.791,0,0,0-.5683,1.82,2.69,2.69,0,0,0-.1706,1.2513,3.0744,3.0744,0,0,0,.2845,1.1374,2.7229,2.7229,0,0,0,2.3887.9668q1.8176.0594,3.4115.0572h12.172q1.25,0,3.07.0567A7.536,7.536,0,0,0,491.4032,287.5087Z"/>
      <path id="type_CompoundPathItem_16" data-name="type &lt;CompoundPathItem&gt;" d="M564.77,238.2561q11.1467-.2267,18.7118,3.5827a28.8944,28.8944,0,0,1,11.773,10.5216,29.2073,29.2073,0,0,1,1.8769,3.47,32.8437,32.8437,0,0,1,1.4226,3.9245,11.4732,11.4732,0,0,1,.4544,1.5358,2.7756,2.7756,0,0,1-.1133,1.7631,1.2183,1.2183,0,0,1-.8535.8529q-.6268.1708-1.308.3978h-1.138a2.7,2.7,0,0,1-.8522.1139h-.9681a22.4934,22.4934,0,0,1-2.9-.1706,2.4368,2.4368,0,0,1-1.877-1.0807,9.2213,9.2213,0,0,1-1.25-2.616,11.3536,11.3536,0,0,0-1.2513-2.73,20.5645,20.5645,0,0,0-3.3561-4.3223,27.5315,27.5315,0,0,0-4.38-3.4128,10.3913,10.3913,0,0,0-3.0138-1.3646q-1.65-.4542-3.3561-.91a18.1779,18.1779,0,0,0-2.8438-.5117,31.4665,31.4665,0,0,0-3.3549-.1712,33.0642,33.0642,0,0,0-3.4128.1712,15.26,15.26,0,0,0-2.7871.5117q-1.1386.2293-2.16.4551a10.9163,10.9163,0,0,0-2.0482.6823,25.0564,25.0564,0,0,0-13.7632,13.65,19.8707,19.8707,0,0,0-1.308,3.3555q-.5117,1.7646-1.0814,3.5828a4.451,4.451,0,0,0-.2266,1.4218,4.4774,4.4774,0,0,1-.2278,1.4219,3.2973,3.2973,0,0,0-.1133.7963,3.4169,3.4169,0,0,1-.1146.7962,18.8024,18.8024,0,0,0-.2845,2.5593q-.0585,1.31-.0566,2.6732,0,.7968-.0567,1.65a6.5648,6.5648,0,0,0,.0567,1.5352v1.1374a4.6279,4.6279,0,0,1,.1712,1.5925,4.5238,4.5238,0,0,0,.17,1.5925,3.4242,3.4242,0,0,1,.1712,1.3652,2.6954,2.6954,0,0,0,.17,1.2513q.3417,1.4794.6256,2.9a22.7616,22.7616,0,0,0,.74,2.7871,33.9792,33.9792,0,0,0,5.004,9.7254,23.785,23.785,0,0,0,8.0769,6.6544,17.7118,17.7118,0,0,0,3.2416,1.2507q1.6465.456,3.5827,1.024a4.0806,4.0806,0,0,0,1.4792.1706,5.0062,5.0062,0,0,1,1.5924.1706,14.9951,14.9951,0,0,0,2.047.1706,6.5593,6.5593,0,0,0,2.1614-.1706h.7956a2.4862,2.4862,0,0,1,.91-.0567,1.5553,1.5553,0,0,0,.91-.1705q1.1367-.2267,2.2181-.3985a8.3637,8.3637,0,0,0,2.1048-.6256,22.28,22.28,0,0,0,12.5119-11.9435,36.2056,36.2056,0,0,0,1.7058-4.8914q.2267-1.0235.399-2.1042a5.2447,5.2447,0,0,1,.739-1.99,2.2434,2.2434,0,0,1,1.82-1.0241q1.25-.1123,2.7293-.114h1.138a4.2743,4.2743,0,0,1,1.0234.114h.7969a4.0792,4.0792,0,0,0,.739.1705,1.0862,1.0862,0,0,1,.6256.2845,1.9711,1.9711,0,0,1,.91,1.6492,6.0659,6.0659,0,0,1-.2279,2.332q-.6816,2.6181-1.2513,5.0046a19.4563,19.4563,0,0,1-1.7058,4.55q-.912,1.48-1.6491,2.8438-.742,1.3653-1.65,2.73a26.0708,26.0708,0,0,1-5.0606,5.403,29.8014,29.8014,0,0,1-6.5411,4.0379,17.4294,17.4294,0,0,1-2.446.91q-1.1934.3418-2.4447.7963a12.1567,12.1567,0,0,1-2.5593.6256q-1.31.1709-2.6738.3984a2.0959,2.0959,0,0,1-1.0235.1706,2.4289,2.4289,0,0,0-.91.0567,8.3891,8.3891,0,0,1-1.3647.1139,10.43,10.43,0,0,0-1.4791.1133,5.4943,5.4943,0,0,1-1.5358.0573,7.561,7.561,0,0,1-1.5359-.1706,3.4515,3.4515,0,0,0-1.08-.0573,3.5424,3.5424,0,0,1-1.08-.0566h-1.138a9.9011,9.9011,0,0,0-1.7058-.2845,10.1936,10.1936,0,0,1-1.707-.2845q-1.0235-.2286-2.0469-.3978a10.3448,10.3448,0,0,1-1.9336-.5118,22.3412,22.3412,0,0,1-4.323-1.7064,28.7449,28.7449,0,0,1-11.6017-8.7585,45.09,45.09,0,0,1-7.0522-13.4221,21.9385,21.9385,0,0,1-.74-2.8438q-.2851-1.4777-.6257-3.0716a2.0531,2.0531,0,0,1-.17-1.0235,3.3069,3.3069,0,0,0-.0567-1.0241,12.572,12.572,0,0,1-.2845-2.1608,13.1286,13.1286,0,0,0-.2845-2.1615v-2.1609a8.3192,8.3192,0,0,1,0-3.8678,1.2511,1.2511,0,0,0,0-.739.8638.8638,0,0,1,0-.6256v-1.0241q.1114-.9084.17-1.8764a10.1452,10.1452,0,0,1,.2846-1.877,4.48,4.48,0,0,0,.2278-1.4218,5.5191,5.5191,0,0,1,.2279-1.5359q.5664-1.9326.91-3.7533a16.1774,16.1774,0,0,1,1.0235-3.4128q.5664-1.4766,1.1947-3.0143a17.3051,17.3051,0,0,1,1.4212-2.7865q1.707-2.9571,3.4128-5.3465a3.4985,3.4985,0,0,1,.8523-.9668,3.4713,3.4713,0,0,0,.8535-.9668,11.7336,11.7336,0,0,1,1.4225-1.5925q.7383-.6825,1.5346-1.3652.6836-.5674,1.3079-1.08c.4167-.3418.8913-.7006,1.4225-1.0807a23.2,23.2,0,0,1,3.5828-2.1615q1.877-.9093,3.9251-1.82a12.2693,12.2693,0,0,1,2.6726-.8535,22.8738,22.8738,0,0,0,2.7872-.739c.5287-.0749,1.0234-.1511,1.4779-.2278.4557-.0743.91-.1511,1.3658-.2273q.9084-.1123,1.7625-.1706c.569-.0377,1.1556-.0944,1.7636-.1705a.7417.7417,0,0,1,.569,0A.7284.7284,0,0,0,564.77,238.2561Z"/>
      <path id="type_CompoundPathItem_17" data-name="type &lt;CompoundPathItem&gt;" d="M622.6667,240.0758H669.644q1.2519,0,2.5026-.0567a3.1957,3.1957,0,0,1,2.0482.5117,2.0838,2.0838,0,0,1,.569.5691q.2265.3408.4544.6823a10.2875,10.2875,0,0,1,.2279,2.5592,11.8064,11.8064,0,0,1-.2279,2.6733,2.183,2.183,0,0,1-1.9336,1.763,31.2951,31.2951,0,0,1-3.5261.1706H639.2737q-1.82,0-4.265-.0567a6.8883,6.8883,0,0,0-3.584.6257,2.661,2.661,0,0,0-1.1934,2.3887q-.0585,1.7061-.0579,3.5261v11.6023q0,1.253-.0567,2.9571a11.1811,11.1811,0,0,0,.1712,2.73,2.4917,2.4917,0,0,0,1.3646,1.82,6.9213,6.9213,0,0,0,1.5925.4551h1.138a2.6839,2.6839,0,0,0,.9668.0566,9.9781,9.9781,0,0,1,1.08-.0566h26.1618q1.0234,0,2.2747-.0573,1.252-.0557,2.5593,0a21.58,21.58,0,0,1,2.3894.2279,4.7089,4.7089,0,0,1,1.6491.5117,1.8222,1.8222,0,0,1,.569,1.0235,11.54,11.54,0,0,1,.3411,1.7064,10.41,10.41,0,0,1,.0567,1.8769,6.5284,6.5284,0,0,1-.2845,1.6492,2.141,2.141,0,0,1-1.0235,1.4791,1.0655,1.0655,0,0,1-.6256.2839,4.517,4.517,0,0,0-.739.1706h-.6823a3.7657,3.7657,0,0,1-1.138.0573c-.38-.0372-.7591-.0573-1.1368-.0573h-28.21q-1.3652,0-2.6738-.0567a12.7864,12.7864,0,0,0-2.4447.114,6.1746,6.1746,0,0,0-1.9916.6256,2.5176,2.5176,0,0,0-1.1934,1.5925,4.1438,4.1438,0,0,0-.1712,1.5924q.0567.9112.0567,1.82v17.1761q0,1.5946.1145,2.9a2.4109,2.4109,0,0,0,.91,1.877,3.3651,3.3651,0,0,0,1.8191.6256q1.0234.0585,2.2747.0573H670.1q.9082,0,1.82-.0573a4.2333,4.2333,0,0,1,1.5925.1706,3.1261,3.1261,0,0,1,1.819,1.2513,2.9045,2.9045,0,0,1,.3412,1.1374c.0755.5319.1322,1.0807.1712,1.65a8.6876,8.6876,0,0,1-.0567,1.7058c-.0768.569-.1535,1.0065-.2278,1.3086a2.9291,2.9291,0,0,1-1.0235,1.2507,3.12,3.12,0,0,1-1.7637.4551H624.4871a18.6807,18.6807,0,0,1-2.7305-.1706,2.3026,2.3026,0,0,1-1.7058-1.0807,3.1062,3.1062,0,0,1-.4557-1.7631V242.92a2.4829,2.4829,0,0,1,.4557-1.5925,2.6374,2.6374,0,0,1,1.7058-1.1374.6454.6454,0,0,1,.4544-.0567A.6341.6341,0,0,0,622.6667,240.0758Z"/>
    </g>
  </g>
</svg>
